<svg width="23" height="19" viewBox="0 0 23 19" fill="none" xmlns="http://www.w3.org/2000/svg">
<path d="M13.2972 6.87489C14.1997 8.10636 15.1023 9.33783 16.0364 10.6124C13.1084 10.6124 10.2469 10.6124 7.31401 10.6124C8.23736 9.35239 9.13283 8.13046 10.0564 6.9034C10.611 7.60831 11.1374 8.31833 11.679 9.04886C11.7629 8.9344 11.8195 8.85596 11.8773 8.77843C12.3505 8.14382 12.8239 7.50938 13.2972 6.87489Z" fill="#64DADF"/>
<path d="M10.0553 6.82551C9.1561 5.60115 8.25694 4.37678 7.32637 3.10966C10.2369 3.10966 13.0956 3.10966 16.0201 3.10966C15.1079 4.35502 14.2145 5.57462 13.2922 6.80013C12.7399 6.09771 12.2165 5.38937 11.6751 4.65669C11.4987 4.89353 11.3542 5.0881 11.2092 5.28221C10.8247 5.79675 10.4399 6.31109 10.0553 6.82551Z" fill="#FFA1A1"/>
<path d="M10.0536 6.83781C10.4399 6.31109 10.8247 5.79675 11.2092 5.28221C11.3542 5.0881 11.4987 4.89353 11.6751 4.65669C12.2165 5.38937 12.7399 6.09771 13.2792 6.81573C13.295 6.8254 13.2985 6.85012 13.2978 6.86251C12.8239 7.50938 12.3505 8.14382 11.8773 8.77843C11.8195 8.85596 11.7629 8.9344 11.679 9.04886C11.1374 8.31833 10.611 7.60831 10.0688 6.8866C10.053 6.87493 10.0519 6.85011 10.0536 6.83781Z" fill="#BA9194"/>
<path d="M2.62679 13.5304C2.75999 13.1564 2.9022 12.8094 3.00887 12.4514C3.06942 12.2482 3.18903 12.217 3.35674 12.2409C3.52897 12.2654 3.73961 12.1436 3.83397 12.4333C4.04084 13.0682 4.27657 13.6935 4.51705 14.3691C4.33458 14.3691 4.18358 14.3801 4.03545 14.3639C3.974 14.3571 3.87566 14.2998 3.86754 14.2525C3.80914 13.9119 3.55281 14.0418 3.36291 14.0211C3.1816 14.0012 3.01652 14.0033 2.96859 14.2508C2.95849 14.303 2.82859 14.3519 2.74821 14.3643C2.62538 14.3833 2.49762 14.3693 2.32875 14.3693C2.43254 14.0793 2.52673 13.8161 2.62679 13.5304ZM3.48637 13.0658C3.46795 13.0324 3.44953 12.9989 3.40927 12.9257C3.3337 13.1549 3.26977 13.3487 3.20184 13.5547C3.36143 13.5547 3.48669 13.5547 3.63853 13.5547C3.58556 13.3841 3.54271 13.2462 3.48637 13.0658Z" fill="#11C1E0"/>
<path d="M20.7461 13.9881C20.8313 14.0979 20.9038 14.1904 20.9742 14.2845C20.984 14.2977 20.9831 14.3191 20.9871 14.3368C20.428 14.4313 20.428 14.4313 19.9063 13.7623C19.8985 13.8912 19.891 13.9797 19.8882 14.0684C19.8855 14.1554 19.8877 14.2426 19.8877 14.3496C19.6861 14.3496 19.5068 14.3496 19.3088 14.3496C19.3088 13.6258 19.3088 12.9007 19.3088 12.1544C19.4927 12.1544 19.6705 12.1544 19.8802 12.1544C19.8802 12.5097 19.8802 12.8586 19.8802 13.2075C19.8992 13.2142 19.9182 13.2209 19.9371 13.2276C20.0679 13.0532 20.166 12.8186 20.3388 12.7215C20.5059 12.6275 20.7499 12.6749 21.042 12.6545C20.8017 12.9776 20.603 13.2446 20.3919 13.5283C20.5079 13.679 20.6204 13.8252 20.7461 13.9881Z" fill="#15C2E0"/>
<path d="M12.3243 12.2307C12.9171 12.2481 13.2425 12.4978 13.3405 13.0023C13.0786 12.9895 12.8178 13.0898 12.5811 12.8484C12.4287 12.693 12.2142 12.7478 12.0583 12.9091C11.8866 13.0869 11.8758 13.4822 12.0379 13.6809C12.1813 13.8566 12.4021 13.9223 12.5532 13.776C12.798 13.5389 13.0638 13.6063 13.3369 13.6033C13.2589 14.1309 12.851 14.4159 12.2472 14.3739C11.7157 14.3369 11.3418 13.9151 11.3289 13.3383C11.3149 12.7066 11.6738 12.2968 12.3243 12.2307Z" fill="#11C1E0"/>
<path d="M9.08794 13.7282C9.08471 13.3778 9.08471 13.0529 9.08471 12.7006C9.27212 12.7006 9.44861 12.7006 9.67151 12.7006C9.67151 12.9717 9.67263 13.2437 9.67114 13.5156C9.67007 13.7097 9.70457 13.8906 9.94079 13.887C10.1716 13.8836 10.212 13.703 10.2126 13.5102C10.2134 13.2444 10.2128 12.9786 10.2128 12.6931C10.4095 12.6931 10.5882 12.6931 10.7824 12.6931C10.7824 13.2433 10.7824 13.7825 10.7824 14.355C10.5767 14.3255 10.3395 14.4999 10.1715 14.2212C9.59883 14.5444 9.18866 14.3695 9.08794 13.7282Z" fill="#12C2E0"/>
<path d="M15.2732 12.8576C15.6361 12.606 15.9952 12.5826 16.3545 12.8012C16.6416 12.9759 16.741 13.2603 16.7256 13.5847C16.708 13.9558 16.4743 14.2533 16.1443 14.3528C15.7773 14.4634 15.3798 14.3534 15.1637 14.0815C14.9595 13.8245 14.9252 13.3731 15.0945 13.0782C15.1377 13.003 15.2021 12.9403 15.2732 12.8576ZM15.5917 13.652C15.6527 13.8188 15.7554 13.9252 15.9411 13.8549C16.1519 13.775 16.1615 13.5771 16.1054 13.413C16.0718 13.3148 15.9278 13.1958 15.8299 13.1926C15.6233 13.1856 15.5795 13.3641 15.5829 13.5461C15.5833 13.5656 15.5846 13.5851 15.5917 13.652Z" fill="#11C1E0"/>
<path d="M6.42003 13.3356C6.18301 13.3252 5.95442 13.3965 5.7706 13.1976C5.74529 13.1702 5.54277 13.2383 5.53687 13.2792C5.51292 13.4456 5.51944 13.6213 5.54943 13.7871C5.55568 13.8216 5.71541 13.8583 5.79447 13.8425C6.01929 13.7976 6.23898 13.7262 6.47254 13.6619C6.50946 14.2402 5.84067 14.5522 5.31855 14.3073C5.00581 14.1606 4.82648 13.7991 4.87171 13.4173C4.91907 13.0176 5.14528 12.7582 5.51915 12.6751C5.87319 12.5963 6.24319 12.7356 6.40628 13.0328C6.45115 13.1146 6.43191 13.2327 6.42003 13.3356Z" fill="#15C2E0"/>
<path d="M7.7223 14.3902C7.33474 14.3514 7.07629 14.1693 6.98122 13.802C6.89256 13.4593 6.92695 13.1273 7.20043 12.8753C7.45982 12.6363 7.77257 12.5957 8.09763 12.7142C8.36081 12.8101 8.52524 13.0019 8.58484 13.3181C8.32818 13.3189 8.08661 13.4274 7.86847 13.2067C7.83306 13.1709 7.62951 13.2231 7.62489 13.2536C7.59849 13.4278 7.59523 13.6095 7.61817 13.784C7.62272 13.8187 7.78214 13.8665 7.85872 13.8507C8.08948 13.8033 8.3146 13.7275 8.57374 13.6537C8.49922 14.1647 8.26382 14.3532 7.7223 14.3902Z" fill="#14C2E0"/>
<path d="M17.7445 13.486C17.7844 13.8933 17.8517 13.9108 18.1759 13.7632C18.3469 13.6853 18.5683 13.7221 18.7748 13.7066C18.6888 14.1779 18.3682 14.4218 17.9148 14.3887C17.4615 14.3556 17.1722 14.0507 17.1487 13.5813C17.1241 13.0899 17.3796 12.7482 17.8327 12.6664C18.2785 12.586 18.6408 12.8236 18.7873 13.3237C18.5501 13.3112 18.3275 13.4203 18.1066 13.2305C17.9443 13.0911 17.8267 13.1756 17.7445 13.486Z" fill="#14C2E0"/>
<path d="M14.0786 14.3697C14.0027 14.3163 13.9113 14.2637 13.9105 14.2097C13.9008 13.5314 13.9041 12.8529 13.9041 12.1539C14.1062 12.1539 14.2841 12.1539 14.4798 12.1539C14.4798 12.8884 14.4798 13.6138 14.4798 14.3699C14.3515 14.3699 14.2284 14.3699 14.0786 14.3697Z" fill="#16C3E0"/>
<path d="M3.49312 13.0871C3.54271 13.2462 3.58556 13.3841 3.63853 13.5547C3.48669 13.5547 3.36143 13.5547 3.20184 13.5547C3.26977 13.3487 3.3337 13.1549 3.40927 12.9257C3.44953 12.9989 3.46795 13.0324 3.49312 13.0871Z" fill="#DFF7FB"/>
<path d="M15.5886 13.6283C15.5846 13.5851 15.5833 13.5656 15.5829 13.5461C15.5795 13.3641 15.6233 13.1856 15.8299 13.1926C15.9278 13.1958 16.0718 13.3148 16.1054 13.413C16.1615 13.5771 16.1519 13.775 15.9411 13.8549C15.7554 13.9252 15.6527 13.8188 15.5886 13.6283Z" fill="#F5FCFE"/>
</svg>
