<svg version="1.1" id="Layer_1" xmlns="http://www.w3.org/2000/svg" xmlns:xlink="http://www.w3.org/1999/xlink" x="0px" y="0px"
	 width="100%" viewBox="0 0 394 320" enable-background="new 0 0 394 320" xml:space="preserve">
<path fill="#FFFFFF" opacity="1.000000" stroke="none" 
	d="
M267.000000,321.000000 
	C178.000015,321.000000 89.500031,321.000000 1.000036,321.000000 
	C1.000024,214.333374 1.000024,107.666733 1.000012,1.000079 
	C132.333267,1.000052 263.666534,1.000052 394.999878,1.000026 
	C394.999908,107.666588 394.999908,214.333176 394.999939,320.999878 
	C352.500000,321.000000 310.000000,321.000000 267.000000,321.000000 
M173.192657,116.370316 
	C173.192657,116.370316 173.212677,116.788292 172.789154,117.354149 
	C157.449341,137.934036 142.109528,158.513916 126.292130,179.734528 
	C176.534180,179.734528 225.553268,179.734528 275.710175,179.734528 
	C259.708649,158.268814 244.247726,137.528259 228.808350,116.370522 
	C228.808350,116.370522 228.749283,115.954208 229.195587,115.428894 
	C244.499969,94.888336 259.804352,74.347778 275.432007,53.373318 
	C225.333511,53.373318 176.362625,53.373318 126.503914,53.373318 
	C142.444916,74.714226 157.848068,95.335106 173.192657,116.370316 
M45.897522,229.258499 
	C44.284039,233.691406 42.670555,238.124313 40.892494,243.009384 
	C43.785305,243.009384 45.973957,243.245575 48.077969,242.925446 
	C49.454914,242.715942 51.680271,241.891968 51.853218,241.013824 
	C52.674236,236.845078 55.502281,236.809921 58.608150,237.144180 
	C61.861160,237.494293 66.252319,235.306259 67.252655,241.041992 
	C67.391701,241.839294 69.076431,242.804413 70.129089,242.917923 
	C72.666481,243.191559 75.253334,243.006622 78.378967,243.006622 
	C74.259598,231.627274 70.221329,221.096802 66.677635,210.402435 
	C65.061089,205.523911 61.452770,207.575562 58.502491,207.162155 
	C55.629459,206.759537 53.580460,207.284714 52.543285,210.707062 
	C50.715965,216.736618 48.279831,222.581665 45.897522,229.258499 
M356.163910,236.306564 
	C354.236420,233.844910 352.308960,231.383255 350.321381,228.844833 
	C353.938049,224.066437 357.341431,219.569809 361.459351,214.129120 
	C356.453979,214.472610 352.274445,213.673416 349.412201,215.256256 
	C346.452393,216.893051 344.771729,220.842941 342.531525,223.780991 
	C342.206787,223.668045 341.882050,223.555084 341.557312,223.442139 
	C341.557312,217.566132 341.557312,211.690125 341.557312,205.705307 
	C337.963440,205.705307 334.918793,205.705307 331.768494,205.705307 
	C331.768494,218.275589 331.768494,230.487473 331.768494,242.678177 
	C335.160553,242.678177 338.230988,242.678177 341.684113,242.678177 
	C341.684113,240.875580 341.647980,239.407455 341.694122,237.941940 
	C341.741180,236.448013 341.869141,234.956650 342.003754,232.785324 
	C350.941284,244.053833 350.941284,244.053833 360.518280,242.462463 
	C360.449097,242.164490 360.465759,241.802841 360.297607,241.581665 
	C359.091766,239.995926 357.848389,238.438736 356.163910,236.306564 
M211.682159,206.993744 
	C200.976517,208.104355 194.829147,215.006226 195.069595,225.645279 
	C195.289154,235.360214 201.695877,242.463821 210.800201,243.087006 
	C221.143539,243.794968 228.130844,238.994247 229.467300,230.108978 
	C224.788345,230.158081 220.235947,229.024445 216.041611,233.016922 
	C213.452698,235.481232 209.671509,234.374756 207.214203,231.414551 
	C204.436981,228.069000 204.622040,221.411301 207.564789,218.416275 
	C210.234253,215.699417 213.909149,214.776459 216.520233,217.394577 
	C220.574844,221.460159 225.042542,219.771057 229.528824,219.985565 
	C227.849258,211.488815 222.275101,207.283096 211.682159,206.993744 
M156.735748,232.638535 
	C158.405823,243.012772 165.432098,245.958664 175.241791,240.514481 
	C178.120789,245.208786 182.184158,242.271576 185.707581,242.769272 
	C185.707581,233.125977 185.707581,224.044388 185.707581,214.777985 
	C182.380875,214.777985 179.319672,214.777985 175.950180,214.777985 
	C175.950180,219.587128 175.960480,224.063889 175.946747,228.540573 
	C175.936783,231.787766 175.244202,234.828918 171.290146,234.886917 
	C167.243530,234.946259 166.652557,231.899643 166.670807,228.630737 
	C166.696381,224.051224 166.677261,219.471451 166.677261,214.904053 
	C162.858871,214.904053 159.835464,214.904053 156.625107,214.904053 
	C156.625107,220.838165 156.625107,226.310944 156.735748,232.638535 
M262.355499,217.790161 
	C261.419067,218.942673 260.315674,219.997681 259.575775,221.264938 
	C256.675659,226.231842 257.262604,233.833435 260.761536,238.162918 
	C264.462402,242.742279 271.272522,244.594254 277.558990,242.730942 
	C283.211792,241.055405 287.215088,236.044357 287.516449,229.795441 
	C287.779999,224.330627 286.077637,219.541763 281.159729,216.599350 
	C275.004913,212.916901 268.852936,213.310898 262.355499,217.790161 
M111.355904,225.575958 
	C111.181503,223.867157 111.510971,221.877121 110.742348,220.499969 
	C107.948608,215.494324 101.610397,213.148712 95.545479,214.474838 
	C89.140938,215.875214 85.265846,220.243149 84.454506,226.976440 
	C83.679695,233.406570 86.751656,239.495087 92.109039,241.965637 
	C101.053268,246.090317 112.509911,240.835388 111.877426,231.095383 
	C107.876488,232.177643 104.113098,233.381302 100.261810,234.137131 
	C98.907394,234.402924 96.171303,233.785675 96.064247,233.203934 
	C95.550446,230.411926 95.438660,227.452682 95.849068,224.650238 
	C95.950081,223.960434 99.419411,222.813599 99.852921,223.274811 
	C103.001892,226.625168 106.917595,225.423615 111.355904,225.575958 
M133.676712,243.399384 
	C142.562866,242.738037 146.595306,239.563980 147.871948,230.957657 
	C143.432678,232.200348 139.576248,233.476471 135.623352,234.275406 
	C134.311447,234.540573 131.580521,233.735764 131.502533,233.152252 
	C131.109665,230.212799 131.165512,227.151901 131.617645,224.218994 
	C131.696854,223.705048 135.183762,222.826050 135.790344,223.429321 
	C139.527130,227.145889 143.665405,225.317963 148.061966,225.304611 
	C147.041107,219.979233 144.224365,216.749100 139.715973,215.133209 
	C134.147491,213.137375 128.789963,213.821960 124.346451,217.847046 
	C119.661743,222.090591 119.072533,227.683411 120.591385,233.454010 
	C122.219910,239.641281 126.647232,242.708496 133.676712,243.399384 
M304.982697,227.717682 
	C306.378448,222.904999 308.393524,221.481445 311.174622,223.830002 
	C314.958893,227.025696 318.772125,225.188446 322.834045,225.399872 
	C320.324799,216.975662 314.118866,212.974335 306.482697,214.329208 
	C298.719879,215.706558 294.342651,221.462128 294.764069,229.737839 
	C295.166626,237.643005 300.123657,242.778687 307.889130,243.335892 
	C315.655182,243.893127 321.148102,239.786255 322.620392,231.847214 
	C319.083832,232.109283 315.289886,231.489441 312.360779,232.801041 
	C306.806976,235.287964 305.653717,234.992416 304.982697,227.717682 
M242.628952,243.018723 
	C244.738098,243.018723 246.847229,243.018723 249.046021,243.018723 
	C249.046021,230.284714 249.046021,218.067825 249.046021,205.696960 
	C245.693008,205.696960 242.644714,205.696960 239.183517,205.696960 
	C239.183517,217.470367 239.126114,228.897125 239.293045,240.320633 
	C239.306335,241.229965 240.872009,242.116608 242.628952,243.018723 
z"/>
<path fill="#64DADF" opacity="1.000000" stroke="none" 
	d="
M228.786789,116.787712 
	C244.247726,137.528259 259.708649,158.268814 275.710175,179.734528 
	C225.553268,179.734528 176.534180,179.734528 126.292130,179.734528 
	C142.109528,158.513916 157.449341,137.934036 173.271225,117.267883 
	C182.770782,129.139954 191.788284,141.098267 201.066147,153.401855 
	C202.502930,151.474121 203.472916,150.152969 204.463181,148.847198 
	C212.568924,138.159088 220.678421,127.473831 228.786789,116.787712 
z"/>
<path fill="#FFA1A1" opacity="1.000000" stroke="none" 
	d="
M173.251236,115.955986 
	C157.848068,95.335106 142.444916,74.714226 126.503914,53.373318 
	C176.362625,53.373318 225.333511,53.373318 275.432007,53.373318 
	C259.804352,74.347778 244.499969,94.888336 228.701218,115.528557 
	C219.240189,103.698288 210.273529,91.768349 200.998718,79.428406 
	C197.977463,83.417404 195.502823,86.694305 193.018051,89.963501 
	C186.431458,98.629440 179.840485,107.292053 173.251236,115.955986 
z"/>
<path fill="#BA9194" opacity="1.000000" stroke="none" 
	d="
M173.221954,116.163147 
	C179.840485,107.292053 186.431458,98.629440 193.018051,89.963501 
	C195.502823,86.694305 197.977463,83.417404 200.998718,79.428406 
	C210.273529,91.768349 219.240189,103.698288 228.478058,115.791214 
	C228.749283,115.954208 228.808350,116.370522 228.797577,116.579117 
	C220.678421,127.473831 212.568924,138.159088 204.463181,148.847198 
	C203.472916,150.152969 202.502930,151.474121 201.066147,153.401855 
	C191.788284,141.098267 182.770782,129.139954 173.482986,116.984955 
	C173.212677,116.788292 173.192657,116.370316 173.221954,116.163147 
z"/>
<path fill="#11C1E0" opacity="1.000000" stroke="none" 
	d="
M45.998062,228.881226 
	C48.279831,222.581665 50.715965,216.736618 52.543285,210.707062 
	C53.580460,207.284714 55.629459,206.759537 58.502491,207.162155 
	C61.452770,207.575562 65.061089,205.523911 66.677635,210.402435 
	C70.221329,221.096802 74.259598,231.627274 78.378967,243.006622 
	C75.253334,243.006622 72.666481,243.191559 70.129089,242.917923 
	C69.076431,242.804413 67.391701,241.839294 67.252655,241.041992 
	C66.252319,235.306259 61.861160,237.494293 58.608150,237.144180 
	C55.502281,236.809921 52.674236,236.845078 51.853218,241.013824 
	C51.680271,241.891968 49.454914,242.715942 48.077969,242.925446 
	C45.973957,243.245575 43.785305,243.009384 40.892494,243.009384 
	C42.670555,238.124313 44.284039,233.691406 45.998062,228.881226 
M60.722996,221.056366 
	C60.407467,220.492569 60.091934,219.928787 59.402317,218.696564 
	C58.107662,222.555939 57.012543,225.820480 55.848972,229.289078 
	C58.582741,229.289078 60.728462,229.289078 63.329689,229.289078 
	C62.422268,226.417038 61.688255,224.093842 60.722996,221.056366 
z"/>
<path fill="#15C2E0" opacity="1.000000" stroke="none" 
	d="
M356.390411,236.589508 
	C357.848389,238.438736 359.091766,239.995926 360.297607,241.581665 
	C360.465759,241.802841 360.449097,242.164490 360.518280,242.462463 
	C350.941284,244.053833 350.941284,244.053833 342.003754,232.785324 
	C341.869141,234.956650 341.741180,236.448013 341.694122,237.941940 
	C341.647980,239.407455 341.684113,240.875580 341.684113,242.678177 
	C338.230988,242.678177 335.160553,242.678177 331.768494,242.678177 
	C331.768494,230.487473 331.768494,218.275589 331.768494,205.705307 
	C334.918793,205.705307 337.963440,205.705307 341.557312,205.705307 
	C341.557312,211.690125 341.557312,217.566132 341.557312,223.442139 
	C341.882050,223.555084 342.206787,223.668045 342.531525,223.780991 
	C344.771729,220.842941 346.452393,216.893051 349.412201,215.256256 
	C352.274445,213.673416 356.453979,214.472610 361.459351,214.129120 
	C357.341431,219.569809 353.938049,224.066437 350.321381,228.844833 
	C352.308960,231.383255 354.236420,233.844910 356.390411,236.589508 
z"/>
<path fill="#11C1E0" opacity="1.000000" stroke="none" 
	d="
M212.120422,206.990570 
	C222.275101,207.283096 227.849258,211.488815 229.528824,219.985565 
	C225.042542,219.771057 220.574844,221.460159 216.520233,217.394577 
	C213.909149,214.776459 210.234253,215.699417 207.564789,218.416275 
	C204.622040,221.411301 204.436981,228.069000 207.214203,231.414551 
	C209.671509,234.374756 213.452698,235.481232 216.041611,233.016922 
	C220.235947,229.024445 224.788345,230.158081 229.467300,230.108978 
	C228.130844,238.994247 221.143539,243.794968 210.800201,243.087006 
	C201.695877,242.463821 195.289154,235.360214 195.069595,225.645279 
	C194.829147,215.006226 200.976517,208.104355 212.120422,206.990570 
z"/>
<path fill="#12C2E0" opacity="1.000000" stroke="none" 
	d="
M156.680420,232.211121 
	C156.625107,226.310944 156.625107,220.838165 156.625107,214.904053 
	C159.835464,214.904053 162.858871,214.904053 166.677261,214.904053 
	C166.677261,219.471451 166.696381,224.051224 166.670807,228.630737 
	C166.652557,231.899643 167.243530,234.946259 171.290146,234.886917 
	C175.244202,234.828918 175.936783,231.787766 175.946747,228.540573 
	C175.960480,224.063889 175.950180,219.587128 175.950180,214.777985 
	C179.319672,214.777985 182.380875,214.777985 185.707581,214.777985 
	C185.707581,224.044388 185.707581,233.125977 185.707581,242.769272 
	C182.184158,242.271576 178.120789,245.208786 175.241791,240.514481 
	C165.432098,245.958664 158.405823,243.012772 156.680420,232.211121 
z"/>
<path fill="#11C1E0" opacity="1.000000" stroke="none" 
	d="
M262.636841,217.549271 
	C268.852936,213.310898 275.004913,212.916901 281.159729,216.599350 
	C286.077637,219.541763 287.779999,224.330627 287.516449,229.795441 
	C287.215088,236.044357 283.211792,241.055405 277.558990,242.730942 
	C271.272522,244.594254 264.462402,242.742279 260.761536,238.162918 
	C257.262604,233.833435 256.675659,226.231842 259.575775,221.264938 
	C260.315674,219.997681 261.419067,218.942673 262.636841,217.549271 
M268.092957,230.928497 
	C269.137909,233.737534 270.897034,235.529556 274.077820,234.345261 
	C277.689484,233.000519 277.854340,229.666183 276.893127,226.903946 
	C276.317383,225.249420 273.850006,223.245728 272.173676,223.190369 
	C268.633606,223.073486 267.884338,226.079422 267.941833,229.144699 
	C267.947998,229.473679 267.970734,229.802368 268.092957,230.928497 
z"/>
<path fill="#15C2E0" opacity="1.000000" stroke="none" 
	d="
M110.977951,225.599167 
	C106.917595,225.423615 103.001892,226.625168 99.852921,223.274811 
	C99.419411,222.813599 95.950081,223.960434 95.849068,224.650238 
	C95.438660,227.452682 95.550446,230.411926 96.064247,233.203934 
	C96.171303,233.785675 98.907394,234.402924 100.261810,234.137131 
	C104.113098,233.381302 107.876488,232.177643 111.877426,231.095383 
	C112.509911,240.835388 101.053268,246.090317 92.109039,241.965637 
	C86.751656,239.495087 83.679695,233.406570 84.454506,226.976440 
	C85.265846,220.243149 89.140938,215.875214 95.545479,214.474838 
	C101.610397,213.148712 107.948608,215.494324 110.742348,220.499969 
	C111.510971,221.877121 111.181503,223.867157 110.977951,225.599167 
z"/>
<path fill="#14C2E0" opacity="1.000000" stroke="none" 
	d="
M133.286392,243.361145 
	C126.647232,242.708496 122.219910,239.641281 120.591385,233.454010 
	C119.072533,227.683411 119.661743,222.090591 124.346451,217.847046 
	C128.789963,213.821960 134.147491,213.137375 139.715973,215.133209 
	C144.224365,216.749100 147.041107,219.979233 148.061966,225.304611 
	C143.665405,225.317963 139.527130,227.145889 135.790344,223.429321 
	C135.183762,222.826050 131.696854,223.705048 131.617645,224.218994 
	C131.165512,227.151901 131.109665,230.212799 131.502533,233.152252 
	C131.580521,233.735764 134.311447,234.540573 135.623352,234.275406 
	C139.576248,233.476471 143.432678,232.200348 147.871948,230.957657 
	C146.595306,239.563980 142.562866,242.738037 133.286392,243.361145 
z"/>
<path fill="#14C2E0" opacity="1.000000" stroke="none" 
	d="
M304.971741,228.132477 
	C305.653717,234.992416 306.806976,235.287964 312.360779,232.801041 
	C315.289886,231.489441 319.083832,232.109283 322.620392,231.847214 
	C321.148102,239.786255 315.655182,243.893127 307.889130,243.335892 
	C300.123657,242.778687 295.166626,237.643005 294.764069,229.737839 
	C294.342651,221.462128 298.719879,215.706558 306.482697,214.329208 
	C314.118866,212.974335 320.324799,216.975662 322.834045,225.399872 
	C318.772125,225.188446 314.958893,227.025696 311.174622,223.830002 
	C308.393524,221.481445 306.378448,222.904999 304.971741,228.132477 
z"/>
<path fill="#16C3E0" opacity="1.000000" stroke="none" 
	d="
M242.172607,243.016266 
	C240.872009,242.116608 239.306335,241.229965 239.293045,240.320633 
	C239.126114,228.897125 239.183517,217.470367 239.183517,205.696960 
	C242.644714,205.696960 245.693008,205.696960 249.046021,205.696960 
	C249.046021,218.067825 249.046021,230.284714 249.046021,243.018723 
	C246.847229,243.018723 244.738098,243.018723 242.172607,243.016266 
z"/>
<path fill="#DFF7FB" opacity="1.000000" stroke="none" 
	d="
M60.838619,221.413513 
	C61.688255,224.093842 62.422268,226.417038 63.329689,229.289078 
	C60.728462,229.289078 58.582741,229.289078 55.848972,229.289078 
	C57.012543,225.820480 58.107662,222.555939 59.402317,218.696564 
	C60.091934,219.928787 60.407467,220.492569 60.838619,221.413513 
z"/>
<path fill="#F5FCFE" opacity="1.000000" stroke="none" 
	d="
M268.039368,230.529846 
	C267.970734,229.802368 267.947998,229.473679 267.941833,229.144699 
	C267.884338,226.079422 268.633606,223.073486 272.173676,223.190369 
	C273.850006,223.245728 276.317383,225.249420 276.893127,226.903946 
	C277.854340,229.666183 277.689484,233.000519 274.077820,234.345261 
	C270.897034,235.529556 269.137909,233.737534 268.039368,230.529846 
z"/>
</svg>